<svg xmlns="http://www.w3.org/2000/svg" width="1714.204" height="635.928" viewBox="0 0 1714.204 635.928">
  <path id="Path_5" data-name="Path 5" d="M2833.458,1371.967c-113.361-7.69-233.44-67.308-446.259-58.411s-316.386,6.6-300.375,151.713,38.622,144.365,20.722,232.1-40.854,144.753,0,195.3,106.54,62.593,279.654,37.511,266.451-52.175,384.372-37.511,545.338,68.807,720.192,53.07,328.986-69.836,304.621-248.374-15.572-224.186-16.6-263.232,6.806-136.586-254.07-95.633c-126.264,19.822-265.915,30.1-389.37,34.554C3004.938,1377.8,2891.952,1375.935,2833.458,1371.967Z" transform="translate(-2084.727 -1312.653)" fill="#fff"/>
</svg>
