<svg id="Layer_1" data-name="Layer 1" xmlns="http://www.w3.org/2000/svg" width="1913.21" height="735.85" viewBox="0 0 1913.21 735.85"><path id="Path_5" data-name="Path 5" d="M856.24,81.19C664.63,66.36,614.13,38.72,373.71,14.29,117.48-11.74,55.47,7.54,26.79,52,1,92-8.73,169.27,16.59,227.06c14.14,32.27,27.63,32.08,40.8,64.83C79.74,347.48,58.7,392.4,49.23,458.3c-4.79,33.37-22.42,156,22.09,219.29,41.54,59,131.76,69.15,302.39,43,187.18-28.73,288.11-59.76,415.61-43,271,35.69,385.24,51.23,778.73,60.78,0,0,171.86,4.17,301-94.22,16.75-12.76,28.7-26.3,36.73-43.22,18-37.91,6.71-72.53-8.34-147-18.64-92.22-28-138.33-24.31-168.48,7.07-58.34,29.94-80.91,20.41-134,0,0-6.5-36.19-28.92-68.77-32.15-46.69-106.3-86.2-291.39-76-180.34,9.92-216.87,53.3-389.48,75.81C1067.74,97.56,983.79,91.06,856.24,81.19Z" transform="translate(-1.81 -2.55)" fill="#fff"/></svg>