<svg id="Layer_1" data-name="Layer 1" xmlns="http://www.w3.org/2000/svg" xmlns:xlink="http://www.w3.org/1999/xlink" width="761.02" height="131.69" viewBox="0 0 761.02 131.69"><defs><clipPath id="clip-path" transform="translate(-29.1 -32.27)"><rect x="2.48" y="6.58" width="186.83" height="186.83" fill="none"/></clipPath></defs><g clip-path="url(#clip-path)"><g clip-path="url(#clip-path)"><path d="M110.08,36.94A62,62,0,1,1,39,72.31,62,62,0,0,1,81.5,36.94" transform="translate(-29.1 -32.27)" fill="none" stroke="#c78283" stroke-linecap="round" stroke-miterlimit="10" stroke-width="9.34"/><path d="M81.65,137.46A42.59,42.59,0,1,1,134,116.08a42.45,42.45,0,0,1-24.3,21.45" transform="translate(-29.1 -32.27)" fill="none" stroke="#f3d9dc" stroke-linecap="round" stroke-miterlimit="10" stroke-width="9.34"/><path d="M116.48,108a23.27,23.27,0,1,1-.77-22.91" transform="translate(-29.1 -32.27)" fill="none" stroke="#c78283" stroke-linecap="round" stroke-miterlimit="10" stroke-width="9.34"/><path d="M102.09,97.28A6.31,6.31,0,1,1,95.78,91a6.31,6.31,0,0,1,6.31,6.3" transform="translate(-29.1 -32.27)" fill="#1d201f"/><circle cx="66.69" cy="65.01" r="6.3" fill="none" stroke="#1d201f" stroke-linecap="round" stroke-miterlimit="10" stroke-width="9.34"/></g></g><path d="M227.4,121.89A24.55,24.55,0,0,1,217.32,120a22.27,22.27,0,0,1-7.6-5.76l6.83-6.83a17.19,17.19,0,0,0,5.06,4,13.83,13.83,0,0,0,6.46,1.44,9.08,9.08,0,0,0,5.12-1.24A3.88,3.88,0,0,0,235,108.3a4.23,4.23,0,0,0-1.17-3.07,9.91,9.91,0,0,0-3.18-2.08c-1.34-.58-2.79-1.13-4.35-1.64a46.85,46.85,0,0,1-4.72-1.84,20.58,20.58,0,0,1-4.35-2.61,11.29,11.29,0,0,1-3.18-4A13.31,13.31,0,0,1,220.9,74.8a21.79,21.79,0,0,1,8.64-1.64,23,23,0,0,1,9.1,1.74,19,19,0,0,1,6.76,4.69l-6.89,6.89a16.15,16.15,0,0,0-4.32-3.28,10.89,10.89,0,0,0-4.85-1.07,8,8,0,0,0-4.35,1,3.34,3.34,0,0,0-1.61,3,3.67,3.67,0,0,0,1.2,2.84,10.73,10.73,0,0,0,3.18,1.91c1.32.54,2.77,1.07,4.36,1.61s3.16,1.15,4.75,1.84a17,17,0,0,1,4.32,2.71,13.09,13.09,0,0,1,3.17,4.15,13.81,13.81,0,0,1,1.24,6.22A12.8,12.8,0,0,1,240.78,118Q236,121.9,227.4,121.89Z" transform="translate(-29.1 -32.27)" fill="#1d201f"/><path d="M277.87,122a25.72,25.72,0,0,1-9.91-1.88,24.38,24.38,0,0,1-8-5.22,23.63,23.63,0,0,1-5.28-7.79,25.58,25.58,0,0,1,0-19.25,23.65,23.65,0,0,1,13.12-12.88,26.07,26.07,0,0,1,9.9-1.84,25.68,25.68,0,0,1,9.81,1.84,24.5,24.5,0,0,1,7.93,5.15,22.78,22.78,0,0,1,5.25,7.76,25.06,25.06,0,0,1,1.85,9.68,24.46,24.46,0,0,1-1.88,9.6,23.84,23.84,0,0,1-5.22,7.77,24.15,24.15,0,0,1-7.83,5.18A25.09,25.09,0,0,1,277.87,122Zm-.14-9.64a14.08,14.08,0,0,0,7.36-1.87,13,13,0,0,0,4.92-5.22,16.29,16.29,0,0,0,1.78-7.77,17.11,17.11,0,0,0-1-6,13.42,13.42,0,0,0-2.87-4.69,12.51,12.51,0,0,0-4.49-3,15.31,15.31,0,0,0-5.69-1,14.52,14.52,0,0,0-7.39,1.84,12.62,12.62,0,0,0-4.92,5.16,16.29,16.29,0,0,0-1.74,7.73,17.6,17.6,0,0,0,1,6.09,13.44,13.44,0,0,0,2.88,4.72,12.4,12.4,0,0,0,4.45,3A15,15,0,0,0,277.73,112.32Z" transform="translate(-29.1 -32.27)" fill="#1d201f"/><path d="M335,121.89a25.67,25.67,0,0,1-9.8-1.84,23.59,23.59,0,0,1-7.9-5.19,23.88,23.88,0,0,1-5.26-7.79,25.63,25.63,0,0,1,0-19.22,23.21,23.21,0,0,1,5.26-7.73A24.67,24.67,0,0,1,325.12,75,27.9,27.9,0,0,1,345,75a24.34,24.34,0,0,1,7.66,5l-7.09,7.16a12.77,12.77,0,0,0-4.45-3.14A15.41,15.41,0,0,0,335,82.8a14.8,14.8,0,0,0-5.62,1,12.65,12.65,0,0,0-4.42,3A13.09,13.09,0,0,0,322,91.5a18.56,18.56,0,0,0,0,12,13.45,13.45,0,0,0,2.88,4.68,12.62,12.62,0,0,0,4.42,3,14.8,14.8,0,0,0,5.62,1,16.33,16.33,0,0,0,6.29-1.1,12.51,12.51,0,0,0,4.56-3.18l7.16,7.16a24,24,0,0,1-7.77,5A27.39,27.39,0,0,1,335,121.89Z" transform="translate(-29.1 -32.27)" fill="#1d201f"/><path d="M361.34,121.16V73.9h10.57v47.26Z" transform="translate(-29.1 -32.27)" fill="#1d201f"/><path d="M380.14,121.16,398.82,73.9h9.57l18.54,47.26H415.75L401.63,82h3.88l-14.45,39.16Zm10.71-8.5v-8.57h25.71v8.57Z" transform="translate(-29.1 -32.27)" fill="#1d201f"/><path d="M434.56,121.16V73.9h10.58v47.26Zm8.17,0v-9.24h23.36v9.24Z" transform="translate(-29.1 -32.27)" fill="#1d201f"/><path d="M487.17,80.46V74.7H525v5.76Zm15.74,40.7V76h6.35v45.12Z" transform="translate(-29.1 -32.27)" fill="#1d201f"/><path d="M524.93,121.16,544,74.7h4.56l18.94,46.46h-6.83L545,81.86h2.41l-15.73,39.3Zm9.1-10.51v-5.49h24.43v5.49Z" transform="translate(-29.1 -32.27)" fill="#1d201f"/><path d="M577.14,121.16V74.7h6.29v46.46Zm4.22-20.22V95.65h12.58a8.74,8.74,0,0,0,6.26-2.07A7.4,7.4,0,0,0,602.37,88a7.58,7.58,0,0,0-2.17-5.56A8.32,8.32,0,0,0,594,80.19H581.36V74.7h12.85a16.46,16.46,0,0,1,7.7,1.71A12.5,12.5,0,0,1,607,81.06a12.87,12.87,0,0,1,1.77,6.76,13.17,13.17,0,0,1-1.77,6.9,12,12,0,0,1-5.05,4.58,17,17,0,0,1-7.7,1.64Zm22.55,20.22L587,100.34l6-2.08,18.88,22.9Z" transform="translate(-29.1 -32.27)" fill="#1d201f"/><path d="M641.33,121.83a22.53,22.53,0,0,1-9.07-1.85,22.81,22.81,0,0,1-7.43-5.12,24.33,24.33,0,0,1,0-33.93,22.74,22.74,0,0,1,7.53-5.09A24.06,24.06,0,0,1,641.8,74,24.45,24.45,0,0,1,652,76.17a20.81,20.81,0,0,1,7.83,6.16l-4.35,4.35a14.38,14.38,0,0,0-5.82-4.92,18.4,18.4,0,0,0-7.9-1.7,17.65,17.65,0,0,0-9,2.27,15.88,15.88,0,0,0-6.09,6.29,20.69,20.69,0,0,0,0,18.55,16.55,16.55,0,0,0,6,6.29,16,16,0,0,0,8.5,2.27,18.17,18.17,0,0,0,8.53-1.87,12.73,12.73,0,0,0,5.49-5.52,19.61,19.61,0,0,0,2-8.94l3.82,2.81H640.93V96.39h22.76v.94a29,29,0,0,1-2.85,13.55,19,19,0,0,1-7.9,8.2A23.94,23.94,0,0,1,641.33,121.83Z" transform="translate(-29.1 -32.27)" fill="#1d201f"/><path d="M674.73,121.16V74.7H681v46.46ZM679,80.46V74.7h26.3v5.76Zm0,19.74V94.65h24.43v5.55Zm0,21V115.4h26.64v5.76Z" transform="translate(-29.1 -32.27)" fill="#1d201f"/><path d="M711.68,80.46V74.7H749.5v5.76Zm15.73,40.7V76h6.36v45.12Z" transform="translate(-29.1 -32.27)" fill="#1d201f"/><path d="M178.3,136.4V63.78h10.95V136.4Zm5.39-62.72v-9.9h16.87v9.9Zm0,62.72v-9.9h16.87v9.9Z" transform="translate(-29.1 -32.27)" fill="#1d201f"/><path d="M784.73,63.61V73.5H767.86V63.61Zm0,62.71v9.9H767.86v-9.9Zm5.39-62.71v72.61h-11V63.61Z" transform="translate(-29.1 -32.27)" fill="#1d201f"/></svg>