<svg id="Layer_1" data-name="Layer 1" xmlns="http://www.w3.org/2000/svg" width="2243.98" height="1473.57" viewBox="0 0 2243.98 1473.57"><path id="Path_47" data-name="Path 47" d="M-52.66-545.22S-101.11-528.7-208.54-383-349-229.22-237.9-96.72s3.51,131.06,135.44,144.79,358.7,84.39,323.34-90.74,64.31-102.59,56.21-214.81S223.05-408,143.45-469.24-52.66-545.22-52.66-545.22Z" transform="translate(306.81 545.22)" fill="#f3d9dc" opacity="0.32" style="isolation:isolate"/><path id="Path_42" data-name="Path 42" d="M1135-306S1086.53-289.5,979.1-143.76,838.64,10,949.73,142.48s3.51,131.06,135.44,144.79,358.71,84.39,323.35-90.74,64.3-102.59,56.21-214.81-54-150.52-133.65-211.76S1135-306,1135-306Z" transform="translate(306.81 545.22)" fill="#f3d9dc" opacity="0.32" style="isolation:isolate"/><path id="Path_43" data-name="Path 43" d="M224.33,195.09c-2.83,156.47-128.59,29.5-143.89,178.7s71.46,152.55,81.11,302.53,90.29,130.9,221.3,110S286.73,601,654.21,632.7s6.38-118.79-30.5-225.1S588.16,188.24,495.4,149.7,227.16,38.62,224.33,195.09Z" transform="translate(306.81 545.22)" fill="#f3d9dc" opacity="0.32" style="isolation:isolate"/><path id="Path_44" data-name="Path 44" d="M1909,450.78S1843.17,336.44,1696,365.42c-85,16.75-69.45,78.89-113.46,106-31.74,19.58-129.53-9.43-152.1,60C1377,695.83,1331.68,656,1390,775.16s123.6,106,254.53,130.47,104.37,43.62,195.24-22.72,86-144.6,95.78-244.56S1909,450.78,1909,450.78Z" transform="translate(306.81 545.22)" fill="#f3d9dc" opacity="0.32" style="isolation:isolate"/></svg>