<svg id="Layer_1" data-name="Layer 1" xmlns="http://www.w3.org/2000/svg" xmlns:xlink="http://www.w3.org/1999/xlink" width="1920.45" height="735.38" viewBox="0 0 1920.45 735.38"><defs><pattern id="New_Pattern" data-name="New Pattern" width="25" height="25" patternUnits="userSpaceOnUse" viewBox="0 0 25 25"><rect width="25" height="25" fill="none"/><circle cx="12.5" cy="12.5" r="7.72" fill="#fff"/></pattern></defs><path d="M507.65,733.12c1.34,0,2.66,0,4,.12,1.55-39.67-18.19-84.11-51.36-93.49-29.13-8.23-48.38,16.29-76.67,6.87-27.63-9.2-29.56-39.34-45-68.69C300.67,505.5,189.26,454,111.26,470.3c-26.94,5.62-48.81,24.35-92.55,61.83C12,537.85,5.67,543.3-.43,548.56V733.12Z" transform="translate(0.43 0.29)" fill="#c78283"/><path d="M979.79,0H507c-29.12,41.27-37.29,103.84-12.06,145.81,20.76,34.54,60.39,47.34,139.64,73,43.36,14,78.94,19.77,100.05,52.11,12.16,18.64,6.41,26,18.76,41.68,34.81,44.14,115.92,30.1,120.88,29.18,9-1.67,63.91-12.75,100-62.53,23-31.67,26.65-62.86,31.26-102.13,2.62-22.33,7.42-66.64-6.25-118.8C996.34,47,990.51,24.8,979.79,0Z" transform="translate(0.43 0.29)" fill="#c78283"/><path d="M1435,733.12c13.29-21.27,38.11-69.61,28-126.25-14.36-80.44-93.77-147.17-135.48-133.39-31.32,10.34-21.18,59.46-72.94,102.12-5.16,4.25-35.86,29-79.21,35.44-87,13-129.58-61.78-183.41-39.6-45,18.54-53.39,86.52-54.19,93.79-2.78,25.21,2.07,48.21,10,67.89Z" transform="translate(0.43 0.29)" fill="#c78283"/><path d="M1919.5-.29H1602.25c-9.12,16.71-13.65,33.57-7.28,46.57,12.7,25.94,59.11,16.77,64.61,37.51,4.44,16.78-23.26,32.7-68.78,77.12-46.12,45-69.18,67.5-70.87,91.71-3.46,49.67,61.56,113.23,118.8,110.46,55.89-2.7,80.28-67.45,123-56.27,28.48,7.46,27.48,38.86,56.27,47.94,32.09,10.11,72.7-16.5,101.52-46.15Z" transform="translate(0.43 0.29)" fill="#c78283"/><circle cx="634.85" cy="305.28" r="7.72" fill="#fff"/><path d="M507.65,733.12a69,69,0,0,1,16.31,2h7.69C523.34,711.48,507.83,691.83,487,686c-29.13-8.23-48.38,16.3-76.67,6.87-27.63-9.2-29.56-39.33-44.95-68.69C327.44,551.7,216,500.24,138,516.5c-26.94,5.62-48.81,24.36-92.55,61.83C28.32,593,13.09,606.09-.43,618.1v115Z" transform="translate(0.43 0.29)" fill="url(#New_Pattern)"/><path d="M1475.76,733.12q4-5.26,7.72-10.77c11.83-17.74,42.28-69.61,31.26-131.3-14.36-80.44-93.77-147.17-135.48-133.4-31.33,10.35-21.18,59.46-72.94,102.13-5.16,4.25-35.86,29-79.21,35.43-87,13-129.58-61.77-183.41-39.6-45,18.54-53.39,86.52-54.19,93.79-3.57,32.32,5.4,61,17.32,83.72Z" transform="translate(0.43 0.29)" fill="url(#New_Pattern)"/><path d="M926.56,0H545.14c-16.09,3.24-31.54,8.63-46.43,20.67-45.44,36.75-63.93,117.94-33.35,168.82,20.76,34.54,60.39,47.35,139.64,73,43.36,14,79,19.77,100,52.11,12.16,18.64,6.41,26,18.76,41.68,34.81,44.14,115.93,30.1,120.88,29.18,9-1.67,63.91-12.75,100-62.53,23-31.67,26.65-62.86,31.26-102.12,2.62-22.34,7.42-66.65-6.25-118.81C965.12,84.27,953.33,39.35,926.56,0Z" transform="translate(0.43 0.29)" fill="url(#New_Pattern)"/><path d="M1919.5,345V37.34A285.24,285.24,0,0,0,1889.44-.29h-252.2c-24,22.53-65.44,71.71-51,101.13,12.7,25.93,59.11,16.77,64.61,37.51,4.44,16.78-23.26,32.7-68.78,77.12-46.12,45-69.18,67.5-70.87,91.71-3.46,49.67,61.56,113.23,118.8,110.46,55.89-2.7,80.28-67.45,123-56.27,28.48,7.46,27.48,38.86,56.27,47.94,35.71,11.25,82-23,110.8-56.25A66.84,66.84,0,0,1,1919.5,345Z" transform="translate(0.43 0.29)" fill="url(#New_Pattern)"/></svg>