<svg xmlns="http://www.w3.org/2000/svg" width="1920.21" height="540.311" viewBox="0 0 1920.21 540.311">
  <g id="Group_8" data-name="Group 8" transform="translate(0 0.001)">
    <path id="Path_28" data-name="Path 28" d="M1919.69,240.15c-24.11-16-53-35.46-87.3-59.2-147.19-101.87-324-121.39-525.5-58-71.58,22.51-120.28,50.54-163.25,75.27-60,34.52-107.35,61.78-203.4,64.79-73.1,2.3-106.76-11.4-167.87-36.26-74.54-30.32-176.62-71.85-403.62-105.56C187.68,94.28,72.63,112.74-.5,147.2V266.92c47.26-46.66,157.11-76.16,354.56-46.83C569.19,252,664.84,291,734.69,319.36c59.8,24.33,107.83,43.87,191,43.87q8.6,0,17.71-.28c121.08-3.8,183.77-39.88,250.14-78.08,40.42-23.26,82.21-47.31,143.37-66.54,170.53-53.63,318.1-38.54,438.59,44.85,65.61,45.41,112.34,76,144.21,96.08Z" transform="translate(0.5 -86.57)" fill="#f3d9dc"/>
    <path id="Path_29" data-name="Path 29" d="M1919.69,334.8c-24.11-15.95-53-35.46-87.3-59.19-147.19-101.87-324-121.39-525.5-58-71.58,22.5-120.28,50.54-163.25,75.27-60,34.51-107.35,61.78-203.4,64.79-73.1,2.29-106.76-11.4-167.87-36.26-74.54-30.33-176.62-71.85-403.62-105.56-181.07-26.89-296.12-8.44-369.25,26V361.58c47.26-46.66,157.11-76.16,354.56-46.84C569.19,346.69,664.84,385.6,734.69,414c59.8,24.33,107.83,43.87,191,43.87q8.6,0,17.71-.28c121.08-3.79,183.77-39.87,250.14-78.07,40.42-23.26,82.21-47.32,143.37-66.55,170.53-53.63,318.1-38.54,438.59,44.85,65.61,45.41,112.34,76,144.21,96.08Z" transform="translate(0.5 -86.57)" fill="#f3d9dc"/>
    <path id="Path_30" data-name="Path 30" d="M1919.69,409.15c-24.11-15.95-53-35.46-87.3-59.2-147.19-101.87-324-121.39-525.5-58-71.58,22.51-120.28,50.54-163.25,75.27-60,34.52-107.35,61.78-203.4,64.79-73.1,2.3-106.76-11.4-167.87-36.26-74.54-30.32-176.62-71.85-403.62-105.56C187.68,263.28,72.63,281.74-.5,316.2V435.92c47.26-46.66,157.11-76.16,354.56-46.83C569.19,421,664.84,460,734.69,488.36c59.8,24.33,107.83,43.87,191,43.87q8.6,0,17.71-.28c121.08-3.8,183.77-39.88,250.14-78.08,40.42-23.26,82.21-47.31,143.37-66.54,170.53-53.63,318.1-38.54,438.59,44.85,65.61,45.41,112.34,76,144.21,96.08Z" transform="translate(0.5 -86.57)" fill="#f3d9dc"/>
    <path id="Path_31" data-name="Path 31" d="M1919.69,503.8c-24.11-15.95-53-35.46-87.3-59.19-147.19-101.87-324-121.39-525.5-58-71.58,22.5-120.28,50.54-163.25,75.27-60,34.51-107.35,61.78-203.4,64.79-73.1,2.29-106.76-11.4-167.87-36.26-74.54-30.33-176.62-71.85-403.62-105.56-181.07-26.89-296.12-8.44-369.25,26V530.58c47.26-46.66,157.11-76.16,354.56-46.84,215.13,32,310.78,70.86,380.63,99.27,59.8,24.33,107.83,43.87,191,43.87q8.6,0,17.71-.28c121.08-3.79,183.77-39.87,250.14-78.07,40.42-23.26,82.21-47.32,143.37-66.55,170.53-53.63,318.1-38.54,438.59,44.85,65.61,45.41,112.34,76,144.21,96.08Z" transform="translate(0.5 -86.57)" fill="#f3d9dc"/>
  </g>
</svg>
